<svg width="426" height="198" viewBox="0 0 426 198" fill="none" xmlns="http://www.w3.org/2000/svg">
<path d="M184.139 16.9541L188.947 18.7246V60.0244L192.963 61.0723C193.48 61.1832 193.943 61.438 194.282 61.7988C194.621 62.1598 194.819 62.6076 194.845 63.0752V105.178L198.713 105.823C199.294 105.891 199.831 106.135 200.23 106.512C200.63 106.889 200.868 107.376 200.904 107.891V141.739L203.801 142.109C204.412 142.152 204.986 142.388 205.416 142.772C205.846 143.157 206.103 143.665 206.14 144.203V166.883H216.61V183.604H221.184V159.84H221.154V145.457L230.134 147.437L230.714 125.116L231.285 147.689L237.391 149.036V158.689H240.961C242.933 128.893 247.844 103.505 253.494 91.7891C261.143 106.668 266.69 143.597 266.954 183.604H269.554V134.899H281.112L281.716 111.135L282.332 134.899H284.51L285.112 111.135L285.729 134.899H292.789V136.411H291.157V137.51H292.789V139.021H291.157V140.12H292.789V141.632H291.157V142.691H292.789V144.203H291.157V145.302H292.789V146.813H291.157V147.912H292.789V149.424H291.157V150.587H292.789V152.099H291.157V153.197H292.789V154.709H291.157V155.808H292.789V157.319H291.157V158.689H298.157V149.295C298.158 144.603 299.68 140.008 302.545 136.049C305.41 132.09 309.499 128.93 314.334 126.938L318.746 125.13V165.797H322.671L324.129 117.712L332.35 60.1416L324.394 108.963L324.57 103.006L321.952 56.7305L322.8 56.5576L323.291 48.6016L323.779 56.3574L333.076 54.4639L333.482 48.0332L333.88 54.4971L342.383 55.4102L342.614 51.7422L342.843 55.46L352.252 56.4717L352.674 49.791L353.091 56.5615L354.659 56.7305L352.821 111.923L347.802 165.797H347.919L352.292 127.455L352.042 134.77L353.525 165.797H360.557V122.984L386.827 113.756L387.439 90.1611L388.027 113.335L395.028 110.876V123.592H396.866V126.254H395.028V128.128H396.866V130.79H395.028V132.663H396.866V135.325H395.028V137.199H396.866V139.861H395.028V141.735H396.866V144.397H395.028V146.271H396.866V148.933H395.028V183.604H396.411V156.428H416.985V183.604H426V198H0V183.604H6.75391C5.54337 178.573 4.93413 173.436 4.94141 168.278C4.84613 153.137 10.2281 138.372 20.291 126.107C19.7039 125.713 19.3982 125.312 19.4268 124.91C19.4875 124.067 21.0217 123.372 23.5557 122.886C29.7992 116.398 37.3613 111.069 45.8398 107.281V91.8018H48.252V106.256C48.2568 106.254 48.2617 106.252 48.2666 106.25V123.2C54.2646 124.152 58.2792 125.599 58.1787 127.003C58.0801 128.372 54.1027 129.35 48.2666 129.676V183.604H52.5166V171.936H63.4727V150.059C63.1229 149.958 62.9141 149.833 62.9141 149.695C62.9141 149.558 63.1227 149.432 63.4727 149.331V143.946C63.1229 143.846 62.9141 143.721 62.9141 143.583C62.9141 143.437 63.1471 143.304 63.5342 143.2L65.5762 135.765L67.6182 143.209C67.9871 143.311 68.208 143.441 68.208 143.583C68.2079 143.715 68.0167 143.835 67.6934 143.934V149.344C68.0168 149.442 68.208 149.563 68.208 149.695C68.208 149.827 68.0167 149.947 67.6934 150.046V171.936H73.4727V158.534C73.1235 158.433 72.9144 158.308 72.9141 158.173C72.9141 158.038 73.1231 157.914 73.4727 157.815V152.416C73.1236 152.318 72.9144 152.196 72.9141 152.061C72.9141 151.917 73.1489 151.783 73.5371 151.68L75.5762 144.255L77.6152 151.688C77.9857 151.791 78.209 151.921 78.209 152.061C78.2086 152.19 78.0167 152.307 77.6943 152.403V157.828C78.0172 157.924 78.209 158.043 78.209 158.173C78.2087 158.302 78.0168 158.422 77.6943 158.521V168.798C80.8209 167.025 85.2255 165.893 90.1309 165.816L90.665 159L91.21 165.816C96.4107 165.9 101.048 167.168 104.194 169.13V158.509C103.898 158.412 103.725 158.297 103.725 158.173C103.725 158.048 103.897 157.933 104.194 157.839V152.392C103.898 152.298 103.725 152.184 103.725 152.061C103.725 151.928 103.92 151.804 104.252 151.704L106.298 144.255L108.331 151.666C108.75 151.772 109.004 151.911 109.004 152.061C109.004 152.197 108.788 152.321 108.431 152.42V157.81C108.79 157.909 109.004 158.035 109.004 158.173C109.004 158.31 108.789 158.436 108.431 158.538V165.797H114.092V150.049C113.75 149.951 113.548 149.829 113.548 149.695C113.548 149.573 113.751 149.45 114.092 149.349V143.937C113.75 143.839 113.548 143.717 113.548 143.583C113.548 143.436 113.776 143.302 114.154 143.2L116.21 135.765L118.238 143.21C118.607 143.313 118.828 143.443 118.828 143.583C118.828 143.712 118.642 143.829 118.327 143.925V149.349C118.642 149.447 118.828 149.567 118.828 149.695C118.828 149.824 118.642 149.941 118.327 150.037V165.797H128.299V151.479L131.485 152.791L131.681 140.223L131.882 152.955C135.712 154.549 138.951 157.062 141.224 160.206C142.478 161.941 143.407 163.828 143.993 165.797H155.8V166.883H162.138V161.093H167.373V127.934C167.377 127.528 167.564 127.14 167.892 126.854C168.219 126.569 168.662 126.409 169.123 126.409H173.491V104.428H173.535V83.6484C173.535 83.2473 173.714 82.8615 174.032 82.5742C174.351 82.2869 174.785 82.1205 175.241 82.1104H179.359V39.0264C179.357 38.8244 179.4 38.6237 179.486 38.4365C179.572 38.2493 179.7 38.0786 179.861 37.9346C180.022 37.7907 180.214 37.6765 180.426 37.5977C180.637 37.5188 180.865 37.4773 181.095 37.4756H182.697V0H184.139V16.9541ZM255.572 119.224C254.59 118.865 253.508 118.771 252.464 118.952C251.42 119.134 250.461 119.583 249.708 120.243C248.955 120.903 248.441 121.745 248.231 122.661C248.022 123.578 248.126 124.528 248.531 125.393C248.936 126.257 249.625 126.996 250.508 127.518C251.391 128.039 252.43 128.319 253.494 128.321C254.923 128.321 256.294 127.823 257.306 126.937C258.317 126.05 258.888 124.847 258.892 123.592C258.892 122.657 258.576 121.743 257.985 120.966C257.395 120.188 256.555 119.582 255.572 119.224ZM253.494 120.077C254.021 120.075 254.542 120.165 255.029 120.341C255.516 120.517 255.959 120.775 256.332 121.102C256.705 121.428 257.001 121.816 257.203 122.243C257.405 122.67 257.509 123.129 257.509 123.592C257.509 124.286 257.275 124.965 256.836 125.543C256.397 126.121 255.773 126.571 255.043 126.838C254.313 127.104 253.509 127.175 252.733 127.04C251.958 126.905 251.245 126.572 250.686 126.082C250.126 125.592 249.743 124.966 249.587 124.285C249.431 123.604 249.508 122.898 249.809 122.256C250.109 121.613 250.62 121.064 251.275 120.676C251.931 120.288 252.704 120.08 253.494 120.077ZM45.502 111.419C42.0103 114.364 38.8533 117.985 36.0898 122.146C37.0591 122.169 38.0515 122.207 39.0605 122.261C41.3244 122.381 43.4922 122.571 45.502 122.815V111.419ZM40.0449 113.039C35.5378 115.707 31.415 118.836 27.7334 122.346C29.3266 122.215 31.0939 122.139 32.9854 122.122C35.119 118.748 37.4856 115.703 40.0449 113.039ZM184.153 82.1104H184.139V103.394L184.179 103.399L184.153 75.0986V82.1104Z" fill="#25356F" fill-opacity="0.06"/>
</svg>
