<svg width="375" height="198" viewBox="0 0 375 198" fill="none" xmlns="http://www.w3.org/2000/svg">
<path d="M162.094 16.9541L166.327 18.7246V60.0244L169.861 61.0723C170.317 61.1832 170.725 61.4379 171.023 61.7988C171.322 62.1598 171.496 62.6076 171.519 63.0752V105.178L174.923 105.823C175.435 105.891 175.907 106.135 176.259 106.512C176.611 106.889 176.821 107.376 176.853 107.891V141.739L179.402 142.109C179.941 142.152 180.445 142.388 180.823 142.772C181.201 143.157 181.428 143.665 181.461 144.203V166.883H190.678V183.604H194.704V159.84H194.679V145.457L202.583 147.437L203.093 125.116L203.596 147.689L208.971 149.036V158.689H212.116C213.853 128.893 218.173 103.505 223.146 91.7891C229.879 106.668 234.76 143.597 234.993 183.604H237.283V134.899H247.459L247.989 111.135L248.532 134.899H250.449L250.979 111.135L251.522 134.899H257.737V136.411H256.3V137.51H257.737V139.021H256.3V140.12H257.737V141.632H256.3V142.691H257.737V144.203H256.3V145.302H257.737V146.813H256.3V147.912H257.737V149.424H256.3V150.587H257.737V152.099H256.3V153.197H257.737V154.709H256.3V155.808H257.737V157.319H256.3V158.689H262.463V149.295C262.464 144.603 263.803 140.008 266.325 136.049C268.847 132.09 272.447 128.93 276.703 126.938L280.587 125.13V165.797H284.041L285.324 117.712L292.562 60.1416L285.558 108.963L285.713 103.006L283.408 56.7305L284.155 56.5566L284.587 48.6016L285.017 56.3574L293.201 54.4639L293.559 48.0332L293.908 54.4971L301.394 55.4102L301.598 51.7422L301.799 55.46L310.081 56.4717L310.452 49.791L310.818 56.5615L312.2 56.7305L310.582 111.923L306.163 165.797H306.267L310.116 127.455L309.896 134.77L311.201 165.797H317.392V122.984L340.517 113.756L341.057 90.1611L341.573 113.334L347.736 110.876V123.592H349.354V126.254H347.736V128.128H349.354V130.79H347.736V132.663H349.354V135.325H347.736V137.199H349.354V139.861H347.736V141.735H349.354V144.397H347.736V146.271H349.354V148.933H347.736V183.604H348.953V156.428H367.064V183.604H375V198H0V183.604H5.94922C4.88349 178.573 4.3432 173.436 4.34961 168.278C4.26574 153.138 9.00433 138.373 17.8623 126.108C17.3451 125.714 17.0764 125.312 17.1016 124.91C17.155 124.067 18.505 123.372 20.7354 122.886C26.2314 116.398 32.8881 111.07 40.3516 107.281V91.8018H42.4746V106.256C42.4791 106.254 42.4838 106.252 42.4883 106.25V123.2C47.7682 124.152 51.3023 125.599 51.2139 127.003C51.1271 128.371 47.6256 129.35 42.4883 129.676V183.604H46.2295V171.936H55.874V150.059C55.5661 149.958 55.3818 149.833 55.3818 149.695C55.3819 149.558 55.5659 149.432 55.874 149.331V143.946C55.5661 143.846 55.3819 143.721 55.3818 143.583C55.3818 143.437 55.5875 143.304 55.9287 143.2L57.7256 135.765L59.5234 143.209C59.848 143.311 60.042 143.441 60.042 143.583C60.0419 143.715 59.8736 143.835 59.5889 143.934V149.344C59.8738 149.442 60.042 149.563 60.042 149.695C60.042 149.827 59.8736 149.947 59.5889 150.046V171.936H64.6768V158.534C64.3693 158.433 64.1858 158.308 64.1855 158.173C64.1855 158.038 64.369 157.914 64.6768 157.815V152.416C64.3695 152.318 64.1859 152.196 64.1855 152.061C64.1855 151.917 64.3916 151.783 64.7334 151.68L66.5283 144.255L68.3242 151.688C68.6498 151.791 68.8457 151.921 68.8457 152.061C68.8454 152.19 68.6765 152.307 68.3926 152.403V157.828C68.677 157.924 68.8457 158.043 68.8457 158.173C68.8454 158.302 68.6765 158.422 68.3926 158.521V168.798C71.1447 167.025 75.0218 165.893 79.3398 165.816L79.8105 159L80.291 165.816C84.8692 165.9 88.9511 167.168 91.7207 169.13V158.509C91.4599 158.412 91.3069 158.297 91.3066 158.173C91.3066 158.048 91.4591 157.933 91.7207 157.839V152.392C91.46 152.298 91.3069 152.185 91.3066 152.061C91.3066 151.928 91.4789 151.804 91.7715 151.704L93.5723 144.255L95.3613 151.666C95.7304 151.772 95.9541 151.91 95.9541 152.061C95.9538 152.198 95.7645 152.322 95.4492 152.421V157.81C95.7656 157.909 95.9541 158.035 95.9541 158.173C95.9538 158.31 95.7645 158.436 95.4492 158.538V165.797H100.434V150.049C100.133 149.951 99.9541 149.829 99.9541 149.695C99.9541 149.573 100.133 149.45 100.434 149.349V143.937C100.133 143.839 99.9541 143.717 99.9541 143.583C99.9541 143.436 100.155 143.302 100.488 143.2L102.298 135.765L104.083 143.21C104.407 143.313 104.602 143.443 104.602 143.583C104.602 143.712 104.439 143.829 104.161 143.925V149.35C104.438 149.448 104.602 149.567 104.602 149.695C104.602 149.824 104.439 149.941 104.161 150.037V165.797H112.938V151.479L115.744 152.79L115.916 140.223L116.093 152.955C119.464 154.549 122.315 157.062 124.316 160.206C125.42 161.941 126.238 163.828 126.754 165.797H137.147V166.883H142.728V161.093H147.336V127.934C147.339 127.528 147.503 127.14 147.792 126.854C148.08 126.569 148.47 126.409 148.876 126.409H152.722V104.428H152.76V83.6484C152.76 83.2473 152.917 82.8615 153.197 82.5742C153.478 82.2869 153.86 82.1205 154.262 82.1104H157.887V39.0264C157.885 38.8244 157.923 38.6237 157.999 38.4365C158.075 38.2494 158.186 38.0785 158.328 37.9346C158.47 37.7907 158.639 37.6765 158.825 37.5977C159.011 37.5188 159.212 37.4773 159.414 37.4756H160.825V0H162.094V16.9541ZM224.976 119.224C224.111 118.865 223.158 118.771 222.239 118.952C221.321 119.134 220.477 119.583 219.813 120.243C219.15 120.903 218.698 121.745 218.514 122.661C218.329 123.578 218.422 124.528 218.778 125.393C219.135 126.257 219.74 126.996 220.518 127.518C221.295 128.039 222.21 128.319 223.146 128.321C224.404 128.321 225.61 127.823 226.501 126.937C227.392 126.05 227.894 124.847 227.897 123.592C227.897 122.657 227.62 121.743 227.1 120.966C226.58 120.188 225.84 119.582 224.976 119.224ZM223.146 120.077C223.61 120.075 224.069 120.165 224.498 120.341C224.927 120.517 225.316 120.775 225.645 121.102C225.973 121.428 226.233 121.816 226.411 122.243C226.589 122.67 226.681 123.129 226.681 123.592C226.681 124.286 226.474 124.965 226.088 125.543C225.702 126.121 225.152 126.571 224.51 126.838C223.867 127.104 223.159 127.175 222.477 127.04C221.794 126.905 221.167 126.572 220.674 126.082C220.181 125.592 219.844 124.966 219.707 124.285C219.57 123.604 219.638 122.898 219.902 122.256C220.167 121.613 220.616 121.064 221.193 120.676C221.771 120.288 222.451 120.08 223.146 120.077ZM40.0547 111.419C36.9811 114.364 34.2021 117.985 31.7695 122.146C32.6226 122.169 33.4957 122.207 34.3838 122.261C36.3768 122.381 38.2854 122.571 40.0547 122.815V111.419ZM35.252 113.038C31.2837 115.706 27.6534 118.835 24.4121 122.346C25.815 122.215 27.3714 122.139 29.0371 122.122C30.9155 118.748 32.9988 115.702 35.252 113.038ZM162.106 82.1104H162.094V103.394L162.129 103.399L162.106 74.8867V82.1104Z" fill="#25356F" fill-opacity="0.06"/>
</svg>
